<svg width="164" height="52" viewBox="0 0 164 52" fill="none" xmlns="http://www.w3.org/2000/svg">
<g clip-path="url(#clip0_612_1921)">
<g clip-path="url(#clip1_612_1921)">
<path d="M150.5 0.554199H13.5007C6.62695 0.554199 1.05469 6.12646 1.05469 13.0002V38.9992C1.05469 45.8729 6.62695 51.4452 13.5007 51.4452H150.5C157.373 51.4452 162.946 45.8729 162.946 38.9992V13.0002C162.946 6.12646 157.373 0.554199 150.5 0.554199Z" fill="#222222"/>
<path fill-rule="evenodd" clip-rule="evenodd" d="M40.295 25.6552C40.265 22.2852 43.012 20.6462 43.137 20.5702C41.582 18.2652 39.169 17.9502 38.322 17.9252C36.297 17.7102 34.332 19.1572 33.3 19.1572C32.249 19.1572 30.66 17.9482 28.947 17.9832C26.745 18.0172 24.682 19.3142 23.552 21.3252C21.218 25.4262 22.958 31.4542 25.193 34.7692C26.311 36.3942 27.618 38.2072 29.328 38.1422C31.002 38.0732 31.627 37.0602 33.646 37.0602C35.648 37.0602 36.234 38.1422 37.978 38.1032C39.774 38.0732 40.905 36.4702 41.984 34.8312C43.278 32.9712 43.796 31.1382 43.817 31.0442C43.774 31.0292 40.329 29.6952 40.295 25.6552ZM36.999 15.7452C37.899 14.6032 38.514 13.0482 38.345 11.4692C37.042 11.5292 35.413 12.3842 34.475 13.5032C33.644 14.4882 32.902 16.1032 33.094 17.6202C34.557 17.7312 36.061 16.8702 36.999 15.7462V15.7452ZM56.329 32.1352H60.854L58.623 25.4642H58.561L56.328 32.1362L56.329 32.1352ZM61.447 34.0332H55.737L54.365 38.1442H51.946L57.356 22.9332H59.868L65.276 38.1442H62.817L61.447 34.0332ZM74.654 32.6002C74.654 30.3542 73.512 28.8782 71.767 28.8782C70.053 28.8782 68.901 30.3842 68.901 32.6002C68.901 34.8342 70.054 36.3312 71.767 36.3312C73.512 36.3312 74.654 34.8662 74.654 32.6002ZM76.959 32.6002C76.959 36.0452 75.141 38.2602 72.399 38.2602C70.844 38.2602 69.607 37.5542 68.964 36.3202H68.911V41.8132H66.67V27.0542H68.84V28.9002H68.881C69.504 27.7102 70.833 26.9392 72.359 26.9392C75.131 26.9392 76.958 29.1632 76.958 32.6012L76.959 32.6002ZM86.674 32.6002C86.674 30.3542 85.533 28.8782 83.788 28.8782C82.075 28.8782 80.923 30.3842 80.923 32.6002C80.923 34.8342 82.075 36.3312 83.788 36.3312C85.533 36.3312 86.674 34.8662 86.674 32.6002ZM88.98 32.6002C88.98 36.0452 87.163 38.2602 84.421 38.2602C82.866 38.2602 81.629 37.5542 80.985 36.3202H80.933V41.8132H78.69V27.0542H80.86V28.9002H80.902C81.524 27.7102 82.854 26.9392 84.38 26.9392C87.152 26.9392 88.978 29.1632 88.978 32.6012L88.98 32.6002ZM96.925 33.9062C97.091 35.4142 98.535 36.4042 100.507 36.4042C102.396 36.4042 103.755 35.4142 103.755 34.0542C103.755 32.8742 102.935 32.1662 100.994 31.6832L99.053 31.2072C96.302 30.5322 95.025 29.2272 95.025 27.1062C95.025 24.4822 97.277 22.6792 100.475 22.6792C103.641 22.6792 105.811 24.4822 105.885 27.1062H103.622C103.485 25.5892 102.25 24.6732 100.443 24.6732C98.638 24.6732 97.403 25.6002 97.403 26.9482C97.403 28.0232 98.192 28.6572 100.123 29.1412L101.774 29.5522C104.846 30.2912 106.123 31.5442 106.123 33.7702C106.123 36.6162 103.891 38.3972 100.341 38.3972C97.018 38.3972 94.775 36.6572 94.631 33.9062H96.925ZM110.962 24.4302V27.0542H113.04V28.8562H110.962V34.9702C110.962 35.9202 111.378 36.3632 112.292 36.3632C112.52 36.3632 112.884 36.3312 113.029 36.3102V38.1032C112.78 38.1662 112.282 38.2072 111.783 38.2072C109.573 38.2072 108.71 37.3652 108.71 35.2142V28.8562H107.121V27.0542H108.71V24.4302H110.962ZM122.319 32.6002C122.319 30.2062 121.238 28.7942 119.423 28.7942C117.606 28.7942 116.527 30.2172 116.527 32.6002C116.527 35.0032 117.606 36.4042 119.423 36.4042C121.238 36.4042 122.319 35.0032 122.319 32.6002ZM114.243 32.6002C114.243 29.1102 116.265 26.9172 119.423 26.9172C122.589 26.9172 124.605 29.1102 124.605 32.6002C124.605 36.0982 122.599 38.2822 119.423 38.2822C116.246 38.2822 114.243 36.0982 114.243 32.6002ZM126.452 27.0532H128.591V28.9422H128.642C128.986 27.6872 129.982 26.9382 131.27 26.9382C131.592 26.9382 131.86 26.9802 132.038 27.0232V29.1522C131.86 29.0782 131.466 29.0152 131.031 29.0152C129.587 29.0152 128.693 30.0062 128.693 31.5662V38.1452H126.452V27.0532ZM134.796 31.5762H140.256C140.204 29.8782 139.135 28.7622 137.577 28.7622C136.03 28.7622 134.911 29.9022 134.796 31.5762ZM142.374 34.8862C142.072 36.9002 140.142 38.2822 137.672 38.2822C134.494 38.2822 132.522 36.1202 132.522 32.6522C132.522 29.1742 134.505 26.9172 137.578 26.9172C140.6 26.9172 142.5 29.0252 142.5 32.3872V33.1682H134.785V33.3052C134.785 35.2022 135.958 36.4482 137.723 36.4482C138.969 36.4482 139.946 35.8462 140.246 34.8862H142.374ZM54.734 14.5722H55.698C56.496 14.5722 57.054 14.0962 57.054 13.4072C57.054 12.7342 56.554 12.2982 55.708 12.2982C54.868 12.2982 54.318 12.7292 54.256 13.4442H53.199C53.272 12.1262 54.241 11.3062 55.742 11.3062C57.159 11.3062 58.157 12.1112 58.157 13.2712C58.1607 13.6586 58.0327 14.0359 57.794 14.3412C57.5578 14.6447 57.2239 14.8574 56.849 14.9432V15.0282C57.782 15.1252 58.451 15.7782 58.451 16.7962C58.451 18.0462 57.283 18.9692 55.763 18.9692C54.197 18.9692 53.123 18.1082 53.058 16.8062H54.131C54.197 17.5062 54.829 17.9562 55.761 17.9562C56.695 17.9562 57.304 17.4502 57.304 16.7362C57.304 16.0112 56.73 15.5652 55.727 15.5652H54.734V14.5722ZM63.162 16.7602V16.3002L61.834 16.3862C61.086 16.4362 60.748 16.6952 60.748 17.1802C60.748 17.6792 61.172 17.9662 61.755 17.9662C62.563 17.9662 63.162 17.4452 63.162 16.7602ZM59.669 17.2332C59.669 16.2392 60.399 15.6672 61.69 15.5852L63.161 15.4992V15.0232C63.161 14.4412 62.784 14.1112 62.049 14.1112C61.451 14.1112 61.037 14.3352 60.917 14.7252H59.88C59.99 13.7772 60.87 13.1692 62.102 13.1692C63.462 13.1692 64.232 13.8582 64.232 15.0232V18.7912H63.197V18.0172H63.113C62.788 18.5692 62.194 18.8832 61.48 18.8832C60.433 18.8832 59.669 18.2412 59.669 17.2332ZM67.075 14.1932V18.7932H66.003V13.2762H69.58V14.1922L67.075 14.1932ZM74.975 16.0312C74.975 14.8662 74.432 14.1632 73.523 14.1632C72.621 14.1632 72.056 14.8812 72.056 16.0362C72.056 17.1862 72.621 17.9062 73.518 17.9062C74.432 17.9062 74.975 17.2012 74.975 16.0312ZM76.077 16.0312C76.077 17.7842 75.204 18.8832 73.834 18.8832C73.059 18.8832 72.444 18.5392 72.161 17.9562H72.077V20.6262H71.004V13.2762H72.035V14.1882H72.117C72.445 13.5592 73.084 13.1842 73.823 13.1842C75.203 13.1842 76.077 14.2782 76.077 16.0312ZM77.506 20.7672V19.8302C77.589 19.8472 77.756 19.8502 77.856 19.8502C78.365 19.8502 78.652 19.6392 78.837 19.0812L78.917 18.8122L76.952 13.2762H78.119L79.481 17.6582H79.566L80.923 13.2762H82.059L80.035 19.0202C79.571 20.3622 79.057 20.7942 77.949 20.7942C77.8007 20.7923 77.6525 20.7837 77.505 20.7682L77.506 20.7672ZM82.896 17.2272H83.962C84.067 17.7132 84.515 17.9672 85.144 17.9672C85.857 17.9672 86.295 17.6472 86.295 17.1512C86.295 16.6192 85.902 16.3652 85.143 16.3652H84.33V15.5192H85.13C85.778 15.5192 86.107 15.2662 86.107 14.8052C86.107 14.4012 85.787 14.0912 85.129 14.0912C84.529 14.0912 84.091 14.3492 84.023 14.7852H82.989C83.099 13.8032 83.901 13.1692 85.129 13.1692C86.421 13.1692 87.159 13.7622 87.159 14.6952C87.159 15.2452 86.815 15.6972 86.301 15.8232V15.9102C87.005 16.0782 87.364 16.5382 87.364 17.1502C87.364 18.2002 86.486 18.8932 85.143 18.8932C83.957 18.8932 82.993 18.3412 82.895 17.2272H82.896ZM88.909 18.7922V13.2762H89.972V17.0702H90.057L92.559 13.2772H93.623V18.7922H92.559V14.9782H92.48L89.972 18.7922H88.909ZM99.476 14.1922H97.766V18.7922H96.693V14.1922H94.982V13.2772H99.477L99.476 14.1922ZM101.481 15.5252H104.223C104.198 14.6592 103.68 14.0952 102.888 14.0952C102.093 14.0952 101.54 14.6642 101.481 15.5252ZM105.252 17.3032C105.007 18.2912 104.138 18.8992 102.898 18.8992C101.341 18.8992 100.388 17.8152 100.388 16.0522C100.388 14.2892 101.36 13.1692 102.892 13.1692C104.404 13.1692 105.317 14.2192 105.317 15.9502V16.3302H101.481V16.3912C101.514 17.3592 102.068 17.9712 102.927 17.9712C103.576 17.9712 104.019 17.7342 104.219 17.3032H105.252ZM110.86 16.3412V17.9562H112.131C112.764 17.9562 113.104 17.6722 113.104 17.1522C113.104 16.5992 112.72 16.3412 111.996 16.3412H110.86ZM110.86 14.1122V15.5402H111.922C112.571 15.5402 112.881 15.2862 112.881 14.8202C112.881 14.3902 112.61 14.1122 112.041 14.1122H110.86ZM109.797 13.2772H112.246C113.308 13.2772 113.932 13.8232 113.932 14.6792C113.932 15.2362 113.544 15.7422 113.015 15.8452V15.9292C113.718 16.0112 114.176 16.5322 114.176 17.2012C114.176 18.1642 113.463 18.7912 112.271 18.7912H109.797V13.2772Z" fill="#FFFFFE"/>
<path d="M150.5 0.554199H13.5007C6.62695 0.554199 1.05469 6.12646 1.05469 13.0002V38.9992C1.05469 45.8729 6.62695 51.4452 13.5007 51.4452H150.5C157.373 51.4452 162.946 45.8729 162.946 38.9992V13.0002C162.946 6.12646 157.373 0.554199 150.5 0.554199Z" stroke="#B3B1B1" stroke-width="1.109"/>
</g>
</g>
<defs>
<clipPath id="clip0_612_1921">
<rect width="163" height="52" fill="white" transform="translate(0.5)"/>
</clipPath>
<clipPath id="clip1_612_1921">
<rect width="163" height="52" fill="white" transform="translate(0.5)"/>
</clipPath>
</defs>
</svg>
