<svg width="292" height="214" viewBox="0 0 292 214" fill="none" xmlns="http://www.w3.org/2000/svg">
<path d="M214.898 159.01C189.023 159.01 166.151 160.925 152.166 163.872C139.301 159.245 122.208 156.429 103.443 156.429C63.4449 156.429 31.0195 169.237 31.0195 185.039C31.0195 200.842 63.4449 213.65 103.443 213.65C143.441 213.65 175.866 200.842 175.866 185.039C175.866 183.505 175.55 182.004 174.965 180.535C186.612 181.598 200.281 182.215 214.898 182.215C257.486 182.215 291.997 177.02 291.997 170.616C292.005 164.196 257.486 159.01 214.898 159.01Z" fill="#EDEEF2"/>
<path d="M165.783 169.333C163.413 169.333 161.213 167.012 160.88 164.163L151.514 84.8652C151.173 82.0163 153.21 79.7031 156.051 79.7031H273.772C276.605 79.7031 278.642 82.0163 278.309 84.8652L268.943 164.163C268.602 167.012 266.403 169.333 264.041 169.333H165.783Z" fill="#F6F6F6"/>
<path d="M273.575 81.4889C275.426 81.4889 276.757 83.0067 276.546 84.8735L267.439 164.172C267.228 166.038 265.783 167.556 264.225 167.556H165.585C164.027 167.556 162.591 166.038 162.371 164.172L153.265 84.8735C153.054 83.0067 154.385 81.4889 156.235 81.4889H273.575ZM273.957 77.9258H155.854C152.023 77.9258 149.288 81.0425 149.75 84.8735L159.376 164.172C159.839 168.002 162.802 171.119 165.975 171.119H263.835C267.009 171.119 269.963 168.002 270.434 164.172L280.06 84.8735C280.523 81.0425 277.788 77.9258 273.957 77.9258Z" fill="#3C4242"/>
<path d="M273.577 81.4893H256.532L251.711 143.994C251.565 145.861 250.128 147.379 248.505 147.379H160.449L162.381 164.164C162.6 166.031 164.037 167.548 165.595 167.548H264.227C265.785 167.548 267.222 166.031 267.441 164.164L276.547 84.8657C276.758 82.9989 275.427 81.4893 273.577 81.4893Z" fill="#EDEEF2"/>
<path d="M273.575 81.4893H267.204L260.24 153.426C260.061 155.292 258.617 156.81 257.018 156.81H161.527L162.371 164.172C162.591 166.039 164.027 167.556 165.586 167.556H264.217C265.775 167.556 267.212 166.039 267.431 164.172L276.538 84.8738C276.757 82.9989 275.426 81.4893 273.575 81.4893Z" fill="#FF0000"/>
<path d="M160.375 101.357L164.425 139.992" stroke="white" stroke-width="5.46568" stroke-miterlimit="10" stroke-linecap="round" stroke-linejoin="round"/>
<path d="M181.866 157.166C181.939 158.181 181.298 159.009 180.429 159.009H176.257C175.397 159.009 174.618 158.181 174.529 157.166L170.422 109.904C170.332 108.881 171.039 108.062 172.004 108.062H176.631C177.597 108.062 178.425 108.881 178.498 109.904L181.866 157.166Z" fill="#BEBCBD" stroke="#3C4242" stroke-width="5.46568" stroke-miterlimit="10" stroke-linecap="round" stroke-linejoin="round"/>
<path d="M200.216 157.166C200.249 158.181 199.575 159.009 198.707 159.009H194.535C193.666 159.009 192.928 158.181 192.879 157.166L190.639 109.904C190.59 108.881 191.329 108.062 192.287 108.062H196.913C197.871 108.062 198.682 108.881 198.715 109.904L200.216 157.166Z" fill="#BEBCBD" stroke="#3C4242" stroke-width="5.46568" stroke-miterlimit="10" stroke-linecap="round" stroke-linejoin="round"/>
<path d="M218.57 157.166C218.562 158.181 217.856 159.009 216.987 159.009H212.823C211.955 159.009 211.249 158.181 211.241 157.166L210.867 109.904C210.859 108.881 211.63 108.062 212.588 108.062H217.214C218.18 108.062 218.951 108.881 218.943 109.904L218.57 157.166Z" fill="#BEBCBD" stroke="#3C4242" stroke-width="5.46568" stroke-miterlimit="10" stroke-linecap="round" stroke-linejoin="round"/>
<path d="M236.92 157.166C236.872 158.181 236.133 159.009 235.265 159.009H231.093C230.224 159.009 229.551 158.181 229.583 157.166L231.077 109.904C231.109 108.881 231.913 108.062 232.878 108.062H237.505C238.463 108.062 239.209 108.881 239.161 109.904L236.92 157.166Z" fill="#BEBCBD" stroke="#3C4242" stroke-width="5.46568" stroke-miterlimit="10" stroke-linecap="round" stroke-linejoin="round"/>
<path d="M255.273 157.166C255.183 158.181 254.412 159.009 253.544 159.009H249.372C248.504 159.009 247.862 158.181 247.935 157.166L251.296 109.904C251.369 108.881 252.205 108.062 253.162 108.062H257.789C258.747 108.062 259.461 108.881 259.371 109.904L255.273 157.166Z" fill="#BEBCBD" stroke="#3C4242" stroke-width="5.46568" stroke-miterlimit="10" stroke-linecap="round" stroke-linejoin="round"/>
<path d="M173.37 84.0542C172.85 84.8577 171.779 85.0931 170.984 84.5736L167.112 82.0818C166.309 81.5624 166.073 80.491 166.593 79.6956L190.601 42.3517C191.121 41.5481 192.192 41.3209 192.996 41.8322L196.867 44.3159C197.671 44.8353 197.906 45.9067 197.387 46.7102L173.37 84.0542Z" fill="#BEBCBD" stroke="#3C4242" stroke-width="5.46568" stroke-miterlimit="10" stroke-linecap="round" stroke-linejoin="round"/>
<path d="M256.433 84.0542C256.952 84.8577 258.024 85.0931 258.827 84.5736L262.699 82.0818C263.502 81.5624 263.73 80.491 263.218 79.6956L239.21 42.3517C238.69 41.5481 237.619 41.3209 236.823 41.8322L232.952 44.3159C232.148 44.8353 231.913 45.9067 232.432 46.7102L256.433 84.0542Z" fill="#BEBCBD" stroke="#3C4242" stroke-width="5.46568" stroke-miterlimit="10" stroke-linecap="round" stroke-linejoin="round"/>
<path d="M148.092 96.8285C145.357 96.8285 143.133 94.6046 143.133 91.8694V82.1945C143.133 79.4593 145.357 77.2354 148.092 77.2354H281.705C284.441 77.2354 286.665 79.4593 286.665 82.1945V91.8694C286.665 94.6046 284.441 96.8285 281.705 96.8285H148.092Z" fill="#F6F6F6"/>
<path d="M281.714 79.0133C283.475 79.0133 284.896 80.4337 284.896 82.195V91.8698C284.896 93.623 283.475 95.0515 281.714 95.0515H148.092C146.339 95.0515 144.911 93.6311 144.911 91.8698V82.195C144.911 80.4418 146.339 79.0133 148.092 79.0133H281.714ZM281.714 75.4502H148.092C144.375 75.4502 141.348 78.4776 141.348 82.195V91.8698C141.348 95.5872 144.375 98.6146 148.092 98.6146H281.706C285.423 98.6146 288.451 95.5872 288.451 91.8698V82.195C288.459 78.4776 285.431 75.4502 281.714 75.4502Z" fill="#3C4242"/>
<path d="M281.713 79.0137H275.35V83.8511C275.35 85.6124 273.93 87.0328 272.168 87.0328H144.91V91.8702C144.91 93.6233 146.339 95.0518 148.092 95.0518H281.705C283.467 95.0518 284.887 93.6314 284.887 91.8702V82.1953C284.895 80.4422 283.467 79.0137 281.713 79.0137Z" fill="#FF0000"/>
<path d="M45.4478 121.819C45.1719 121.819 44.8878 121.754 44.6362 121.624L27.6321 112.948C27.0072 112.631 26.6257 111.965 26.6582 111.267C26.6988 110.561 27.1452 109.953 27.7945 109.701L85.7948 87.4049C85.9978 87.3238 86.2169 87.2832 86.436 87.2832C86.6308 87.2832 86.8338 87.3157 87.0204 87.3806L101.541 92.4209C102.255 92.6725 102.742 93.3462 102.742 94.101V98.695C102.742 99.4336 102.288 100.091 101.598 100.359L46.0809 121.705C45.878 121.778 45.667 121.819 45.4478 121.819Z" fill="#EDEEF2"/>
<path d="M86.4431 89.069L100.963 94.1093V98.7033L45.4467 120.05L28.4427 111.365L86.4431 89.069ZM86.4431 85.5059C86.0048 85.5059 85.5746 85.587 85.1607 85.7412L27.1684 108.037C25.8535 108.54 24.9607 109.774 24.8877 111.178C24.8146 112.582 25.5695 113.897 26.8275 114.539L43.8315 123.215C44.3348 123.475 44.8948 123.605 45.4548 123.605C45.885 123.605 46.3233 123.523 46.7372 123.369L102.254 102.023C103.634 101.495 104.535 100.172 104.535 98.6951V94.1012C104.535 92.5834 103.577 91.228 102.14 90.7329L87.6199 85.6925C87.2385 85.5708 86.8408 85.5059 86.4431 85.5059Z" fill="#3C4242"/>
<path d="M55.4774 116.178L44.3335 110.846L95.1751 92.0887L86.4418 89.0693L28.4414 111.365L45.4454 120.042L55.4774 116.178Z" fill="#BEBCBD"/>
<path d="M161.443 121.819C161.224 121.819 161.013 121.779 160.802 121.697L105.285 100.351C104.595 100.083 104.141 99.4258 104.141 98.6872V94.0932C104.141 93.3303 104.619 92.6566 105.342 92.4131L119.862 87.3728C120.049 87.3079 120.252 87.2754 120.447 87.2754C120.666 87.2754 120.877 87.316 121.088 87.3971L179.088 109.693C179.746 109.945 180.192 110.562 180.225 111.26C180.265 111.966 179.884 112.623 179.259 112.94L162.255 121.616C162.003 121.754 161.727 121.819 161.443 121.819Z" fill="#EDEEF2"/>
<path d="M120.447 89.069L178.447 111.365L161.443 120.041L105.926 98.6951V94.1012L120.447 89.069ZM120.447 85.5059C120.049 85.5059 119.659 85.5708 119.278 85.7007L104.758 90.741C103.321 91.2361 102.363 92.5916 102.363 94.1093V98.7033C102.363 100.18 103.272 101.503 104.652 102.031L160.169 123.377C160.583 123.54 161.013 123.613 161.451 123.613C162.011 123.613 162.563 123.483 163.075 123.223L180.079 114.547C181.329 113.905 182.091 112.591 182.018 111.186C181.945 109.782 181.053 108.549 179.738 108.045L121.737 85.7494C121.315 85.5789 120.877 85.5059 120.447 85.5059Z" fill="#3C4242"/>
<path d="M151.413 116.178L162.565 110.846L111.715 92.0887L120.448 89.0693L178.449 111.365L161.445 120.042L151.413 116.178Z" fill="#BEBCBD"/>
<path d="M161.442 180.501C161.223 180.501 161.012 180.461 160.801 180.38L102.801 158.084C102.111 157.816 101.656 157.158 101.656 156.42V98.4194C101.656 97.835 101.948 97.2831 102.427 96.9503C102.728 96.7474 103.077 96.6338 103.434 96.6338C103.653 96.6338 103.864 96.6744 104.075 96.7555L162.075 119.052C162.765 119.319 163.22 119.977 163.22 120.715V178.716C163.22 179.3 162.928 179.852 162.449 180.185C162.148 180.396 161.799 180.501 161.442 180.501Z" fill="#BEBCBD"/>
<path d="M103.442 98.4196L161.442 120.716V178.716L103.442 156.42V98.4196ZM103.442 94.8564C102.728 94.8564 102.03 95.0675 101.421 95.4814C100.455 96.147 99.8789 97.2427 99.8789 98.4196V156.42C99.8789 157.897 100.788 159.22 102.16 159.748L160.16 182.044C160.574 182.206 161.004 182.279 161.442 182.279C162.157 182.279 162.855 182.068 163.463 181.654C164.429 180.989 165.006 179.893 165.006 178.716V120.716C165.006 119.238 164.096 117.915 162.717 117.388L104.716 95.0918C104.31 94.9376 103.872 94.8564 103.442 94.8564Z" fill="#3C4242"/>
<path d="M148.062 115.569L103.445 134.602V156.42L161.446 178.724V120.715L148.062 115.569Z" fill="#FF0000"/>
<path d="M103.442 203.633C103.084 203.633 102.735 203.528 102.435 203.317C101.948 202.984 101.664 202.432 101.664 201.848V143.847C101.664 143.109 102.119 142.451 102.808 142.183L160.809 119.887C161.012 119.806 161.231 119.766 161.45 119.766C161.807 119.766 162.156 119.871 162.456 120.082C162.943 120.415 163.228 120.967 163.228 121.551V179.552C163.228 180.29 162.773 180.948 162.083 181.215L104.083 203.511C103.872 203.593 103.661 203.633 103.442 203.633Z" fill="#EDEEF2"/>
<path d="M161.442 121.551V179.552L103.442 201.848V143.847L161.442 121.551ZM161.442 117.988C161.012 117.988 160.574 118.069 160.16 118.224L102.16 140.52C100.78 141.047 99.8789 142.37 99.8789 143.847V201.848C99.8789 203.025 100.455 204.12 101.421 204.786C102.022 205.2 102.728 205.411 103.442 205.411C103.872 205.411 104.311 205.33 104.724 205.175L162.725 182.88C164.105 182.352 165.014 181.029 165.014 179.552V121.551C165.014 120.375 164.437 119.279 163.472 118.613C162.855 118.199 162.157 117.988 161.442 117.988Z" fill="#3C4242"/>
<path d="M151.414 125.414V171.191L103.445 189.632V201.855L161.446 179.551V121.551L151.414 125.414Z" fill="#BEBCBD"/>
<path d="M45.4455 180.501C45.0884 180.501 44.7393 180.396 44.439 180.185C43.952 179.852 43.668 179.3 43.668 178.716V120.715C43.668 119.977 44.1225 119.319 44.8124 119.052L102.813 96.7555C103.016 96.6744 103.235 96.6338 103.454 96.6338C103.811 96.6338 104.16 96.7393 104.46 96.9503C104.947 97.2831 105.231 97.835 105.231 98.4194V156.42C105.231 157.158 104.777 157.816 104.087 158.084L46.0867 180.38C45.8757 180.461 45.6646 180.501 45.4455 180.501Z" fill="#EDEEF2"/>
<path d="M103.447 98.4196V156.42L45.4463 178.716V120.716L103.447 98.4196ZM103.447 94.8564C103.016 94.8564 102.586 94.9376 102.164 95.0918L44.1638 117.388C42.784 117.915 41.875 119.238 41.875 120.716V178.716C41.875 179.893 42.4513 180.989 43.4171 181.654C44.0178 182.068 44.7239 182.279 45.4381 182.279C45.8683 182.279 46.3066 182.198 46.7205 182.044L104.721 159.748C106.101 159.22 107.002 157.897 107.002 156.42V98.4196C107.002 97.2427 106.425 96.147 105.46 95.4814C104.867 95.0675 104.161 94.8564 103.447 94.8564Z" fill="#3C4242"/>
<path d="M95.2237 101.585V150.357L45.4453 169.496V178.724L103.446 156.42V98.4199L95.2237 101.585Z" fill="#BEBCBD"/>
<path d="M103.446 203.633C103.227 203.633 103.016 203.593 102.805 203.511L44.8046 181.216C44.1147 180.948 43.6602 180.29 43.6602 179.552V121.551C43.6602 120.967 43.9524 120.415 44.4312 120.082C44.7315 119.879 45.0805 119.766 45.4377 119.766C45.6568 119.766 45.8678 119.806 46.0789 119.887L104.079 142.183C104.769 142.451 105.224 143.109 105.224 143.847V201.848C105.224 202.432 104.931 202.984 104.453 203.317C104.152 203.528 103.803 203.633 103.446 203.633Z" fill="#FF0000"/>
<path d="M45.4459 121.551L103.446 143.847V201.848L45.4459 179.552V121.551ZM45.4459 117.988C44.7317 117.988 44.0337 118.199 43.4249 118.613C42.4591 119.279 41.8828 120.375 41.8828 121.551V179.552C41.8828 181.029 42.7919 182.352 44.1717 182.88L102.172 205.175C102.586 205.338 103.016 205.411 103.454 205.411C104.169 205.411 104.867 205.2 105.475 204.786C106.441 204.12 107.018 203.025 107.018 201.848V143.847C107.018 142.37 106.109 141.047 104.737 140.52L46.7365 118.224C46.3144 118.069 45.8761 117.988 45.4459 117.988Z" fill="#3C4242"/>
<path d="M94.2497 140.316V188.196L45.4453 169.43V179.551L103.446 201.856V143.847L94.2497 140.316Z" fill="#BEBCBD"/>
<path d="M115.284 162.978C114.708 162.978 114.156 162.702 113.815 162.199L104.457 148.49C104.254 148.198 104.148 147.841 104.148 147.484V142.89C104.148 142.151 104.603 141.494 105.293 141.226L160.81 119.88C161.021 119.798 161.232 119.758 161.451 119.758C162.027 119.758 162.579 120.042 162.92 120.537L174.762 137.882C175.07 138.328 175.151 138.896 174.989 139.416C174.827 139.935 174.437 140.349 173.926 140.552L115.925 162.848C115.714 162.946 115.495 162.978 115.284 162.978Z" fill="#EDEEF2"/>
<path d="M161.443 121.551L173.285 138.896L115.285 161.192L105.927 147.484V142.89L161.443 121.551ZM161.443 117.988C161.013 117.988 160.583 118.069 160.169 118.224L104.644 139.57C103.265 140.098 102.355 141.421 102.355 142.898V147.492C102.355 148.206 102.575 148.912 102.972 149.496L112.331 163.205C113.012 164.204 114.124 164.764 115.277 164.764C115.707 164.764 116.137 164.682 116.551 164.528L174.552 142.232C175.566 141.843 176.353 141.007 176.678 139.968C177.003 138.929 176.832 137.801 176.224 136.9L164.382 119.555C163.708 118.548 162.596 117.988 161.443 117.988Z" fill="#3C4242"/>
<path d="M151.41 125.414L156.621 133.084L108.652 151.533L115.284 161.2L173.284 138.904L161.442 121.551L151.41 125.414Z" fill="#BEBCBD"/>
<path d="M91.5991 162.978C91.3881 162.978 91.1689 162.937 90.9579 162.856L32.9575 140.56C32.4462 140.365 32.0566 139.951 31.8943 139.424C31.7319 138.904 31.8131 138.336 32.1215 137.89L43.9635 120.545C44.3044 120.05 44.8563 119.766 45.4326 119.766C45.6436 119.766 45.8627 119.806 46.0738 119.887L102.094 141.429C102.784 141.696 103.238 142.354 103.238 143.092V146.753C103.238 147.11 103.133 147.459 102.93 147.759L93.0682 162.215C92.7354 162.702 92.1754 162.978 91.5991 162.978Z" fill="#EDEEF2"/>
<path d="M45.4412 121.551L101.461 143.093V146.753L91.5996 161.209L33.5992 138.913L45.4412 121.551ZM45.4412 117.988C44.2886 117.988 43.1767 118.548 42.4949 119.547L30.661 136.892C30.0442 137.792 29.8819 138.921 30.2065 139.96C30.5312 140.998 31.3104 141.834 32.333 142.224L90.3334 164.52C90.7473 164.682 91.1856 164.755 91.6077 164.755C92.7602 164.755 93.8722 164.195 94.554 163.197L104.415 148.742C104.821 148.149 105.032 147.451 105.032 146.737V143.076C105.032 141.599 104.123 140.276 102.743 139.749L46.7236 118.207C46.3015 118.069 45.8713 117.988 45.4412 117.988Z" fill="#3C4242"/>
<path d="M55.4716 125.414L50.2689 133.084L98.2373 151.533L91.598 161.2L33.5977 138.904L45.4396 121.551L55.4716 125.414Z" fill="#BEBCBD"/>
<path d="M105.734 111.74C104.995 111.74 104.313 111.278 104.053 110.555L91.2375 74.5913L16.0383 80.0699C15.9977 80.0699 15.949 80.078 15.9084 80.078C12.394 80.078 9.52889 77.2535 9.46395 73.7471L1.78576 8.43383C1.77765 8.3689 1.76953 8.29586 1.76953 8.22281C1.76953 4.66779 4.659 1.77832 8.21402 1.77832C8.2546 1.77832 8.28706 1.77832 8.32765 1.77832L114.329 8.50688C117.851 8.53935 120.708 11.4126 120.708 14.9433V66.4585C120.708 69.9892 117.86 72.8625 114.337 72.8949L107.511 73.39V109.947C107.511 110.815 106.886 111.554 106.034 111.7C105.936 111.732 105.839 111.74 105.734 111.74Z" fill="#F6F6F6"/>
<path d="M8.222 3.56313L114.28 10.2998C116.853 10.2998 118.939 12.3857 118.939 14.9587V66.474C118.939 69.0469 116.853 71.1328 114.28 71.1328L105.742 71.7578V109.97L92.4711 72.7237L15.9164 78.2997C13.3435 78.2997 11.2576 76.2138 11.2576 73.6408L3.57125 8.23011C3.56313 5.64907 5.64907 3.56313 8.222 3.56313ZM8.222 0C3.68488 0 0 3.693 0 8.23011C0 8.36809 0.00811549 8.50607 0.0243484 8.64405L7.69442 73.8681C7.82429 78.2916 11.4605 81.8547 15.9164 81.8547C16.0057 81.8547 16.0869 81.8547 16.1761 81.8466L90.0199 76.4654L102.381 111.155C102.893 112.592 104.248 113.525 105.733 113.525C105.936 113.525 106.139 113.509 106.342 113.477C108.047 113.184 109.297 111.699 109.297 109.962V75.0612L114.418 74.6879C118.882 74.6067 122.494 70.9543 122.494 66.4659V14.9506C122.494 10.4621 118.874 6.80161 114.402 6.72856L8.44926 0.00811821C8.37621 1.73405e-06 8.30316 0 8.222 0Z" fill="#3C4242"/>
<path d="M27.0779 10.4865L14.3107 9.6748C12.0299 9.6748 10.1875 11.5254 10.1875 13.798L13.9292 45.6389" stroke="#3C4242" stroke-width="5.46568" stroke-miterlimit="10" stroke-linecap="round" stroke-linejoin="round"/>
<path d="M114.281 10.292L106.903 9.82129V55.9797C106.903 58.5526 104.817 60.6386 102.244 60.6386L96.3763 61.0687L95.8568 61.1093L93.6978 61.2635L10.5039 67.3266L11.2506 73.6331C11.2506 76.206 13.3366 78.2919 15.9095 78.2919L92.4641 72.7159L93.706 76.1898L105.743 109.962V71.75L114.281 71.1251C116.854 71.1251 118.94 69.0391 118.94 66.4662V14.9509C118.94 12.378 116.854 10.292 114.281 10.292Z" fill="#FF0000"/>
<path d="M114.281 10.2923L112.147 10.1543V61.6128C112.147 64.1857 110.061 66.2716 107.488 66.2716L98.9492 66.8966V90.897L105.743 109.963V71.7503L114.281 71.1253C116.854 71.1253 118.94 69.0394 118.94 66.4664V14.9511C118.94 12.3782 116.854 10.2923 114.281 10.2923Z" fill="#BEBCBD"/>
<circle cx="44.3097" cy="28.3097" r="5.30973" fill="#2A2F2F"/>
<circle cx="84.9269" cy="28.3097" r="5.30973" fill="#2A2F2F"/>
<path d="M55 53.6191C58.4941 46.0729 68.7859 35.5082 82 53.6191" stroke="#2A2F2F" stroke-width="5" stroke-linecap="round"/>
</svg>
