<svg width="175" height="52" viewBox="0 0 175 52" fill="none" xmlns="http://www.w3.org/2000/svg">
<g clip-path="url(#clip0_612_1893)">
<g clip-path="url(#clip1_612_1893)">
<path d="M161.499 0.554199H13.4997C6.62598 0.554199 1.05371 6.12646 1.05371 13.0002V38.9992C1.05371 45.8729 6.62598 51.4452 13.4997 51.4452H161.499C168.372 51.4452 173.945 45.8729 173.945 38.9992V13.0002C173.945 6.12646 168.372 0.554199 161.499 0.554199Z" fill="#222222"/>
<path fill-rule="evenodd" clip-rule="evenodd" d="M138.738 38.7762H141.108V22.7582H138.738V38.7762ZM160.099 28.5282L157.381 35.4732H157.3L154.477 28.5282H151.924L156.155 38.2342L153.742 43.6342H156.215L162.737 28.5282H160.099ZM146.648 36.9572C145.873 36.9572 144.788 36.5652 144.788 35.5972C144.788 34.3612 146.138 33.8872 147.304 33.8872C148.344 33.8872 148.837 34.1142 149.469 34.4232C149.285 35.9062 148.018 36.9572 146.648 36.9572ZM146.935 28.1792C145.218 28.1792 143.439 28.9422 142.704 30.6322L144.809 31.5162C145.259 30.6322 146.097 30.3422 146.976 30.3422C148.202 30.3422 149.449 31.0842 149.469 32.4022V32.5672C149.04 32.3202 148.12 31.9502 146.996 31.9502C144.726 31.9502 142.416 33.2062 142.416 35.5552C142.416 37.6992 144.277 39.0802 146.363 39.0802C147.956 39.0802 148.837 38.3592 149.387 37.5142H149.469V38.7492H151.76V32.6092C151.76 29.7652 149.652 28.1792 146.935 28.1792ZM132.277 30.4792H128.904V24.9892H132.277C134.05 24.9892 135.056 26.4692 135.056 27.7332C135.056 28.9742 134.05 30.4792 132.277 30.4792ZM132.215 22.7592H126.534V38.7762H128.904V32.7082H132.216C134.844 32.7082 137.428 30.7902 137.428 27.7332C137.428 24.6772 134.844 22.7592 132.216 22.7592H132.215ZM101.227 36.9622C99.5884 36.9622 98.2174 35.5782 98.2174 33.6792C98.2174 31.7592 99.5894 30.3552 101.227 30.3552C102.843 30.3552 104.114 31.7582 104.114 33.6802C104.114 35.5772 102.843 36.9622 101.227 36.9622ZM103.95 29.4262H103.868C103.336 28.7872 102.311 28.2082 101.023 28.2082C98.3194 28.2082 95.8434 30.6042 95.8434 33.6782C95.8434 36.7332 98.3194 39.1082 101.023 39.1082C102.311 39.1082 103.336 38.5312 103.868 37.8702H103.95V38.6532C103.95 40.7392 102.843 41.8532 101.063 41.8532C99.6094 41.8532 98.7084 40.8002 98.3394 39.9132L96.2724 40.7802C96.8644 42.2242 98.4404 44.0002 101.063 44.0002C103.848 44.0002 106.203 42.3482 106.203 38.3242V28.5372H103.95V29.4262ZM107.842 38.7762H110.217V22.7592H107.842V38.7762ZM113.717 33.4932C113.656 31.3872 115.335 30.3142 116.545 30.3142C117.486 30.3142 118.285 30.7892 118.552 31.4702L113.717 33.4932ZM121.09 31.6762C120.639 30.4592 119.267 28.2082 116.462 28.2082C113.678 28.2082 111.363 30.4182 111.363 33.6582C111.363 36.7132 113.656 39.1082 116.728 39.1082C119.205 39.1082 120.639 37.5812 121.234 36.6932L119.391 35.4532C118.775 36.3622 117.936 36.9612 116.728 36.9612C115.52 36.9612 114.66 36.4032 114.108 35.3092L121.336 32.2952L121.089 31.6762H121.09ZM63.5004 29.8812V32.1932H68.9894C68.8254 33.4932 68.3944 34.4432 67.7394 35.1032C66.9404 35.9092 65.6904 36.7962 63.5004 36.7962C60.1214 36.7962 57.4804 34.0502 57.4804 30.6452C57.4804 27.2392 60.1214 24.4932 63.5004 24.4932C65.3234 24.4932 66.6544 25.2162 67.6374 26.1452L69.2554 24.5142C67.8824 23.1932 66.0614 22.1802 63.5004 22.1802C58.8734 22.1802 54.9824 25.9802 54.9824 30.6452C54.9824 35.3092 58.8734 39.1082 63.5004 39.1082C65.9984 39.1082 67.8824 38.2812 69.3564 36.7332C70.8724 35.2072 71.3434 33.0602 71.3434 31.3252C71.349 30.841 71.3078 30.3574 71.2204 29.8812H63.5004ZM77.5824 36.9622C75.9454 36.9622 74.5324 35.5982 74.5324 33.6582C74.5324 31.6962 75.9454 30.3552 77.5824 30.3552C79.2204 30.3552 80.6344 31.6962 80.6344 33.6582C80.6344 35.5982 79.2204 36.9622 77.5824 36.9622ZM77.5824 28.2072C74.5924 28.2072 72.1554 30.5002 72.1554 33.6582C72.1554 36.7982 74.5914 39.1082 77.5824 39.1082C80.5724 39.1082 83.0084 36.7962 83.0084 33.6582C83.0084 30.5002 80.5724 28.2072 77.5824 28.2072ZM89.4204 36.9622C87.7814 36.9622 86.3684 35.5982 86.3684 33.6582C86.3684 31.6962 87.7814 30.3552 89.4204 30.3552C91.0594 30.3552 92.4714 31.6962 92.4714 33.6582C92.4714 35.5982 91.0584 36.9622 89.4204 36.9622ZM89.4204 28.2072C86.4304 28.2072 83.9934 30.5002 83.9934 33.6582C83.9934 36.7982 86.4314 39.1082 89.4204 39.1082C92.4104 39.1082 94.8474 36.7962 94.8474 33.6582C94.8474 30.5002 92.4114 28.2072 89.4204 28.2072Z" fill="white"/>
<mask id="mask0_612_1893" style="mask-type:alpha" maskUnits="userSpaceOnUse" x="15" y="9" width="17" height="34">
<path d="M16.0772 9.99485C15.7072 10.3909 15.4902 11.0019 15.4902 11.7949V40.1349C15.4902 40.9289 15.7092 41.5409 16.0772 41.9349L16.1712 42.0269L31.9202 26.1519V25.7779L16.1712 9.90186L16.0772 9.99485Z" fill="white"/>
</mask>
<g mask="url(#mask0_612_1893)">
<path d="M16.0772 9.99485C15.7072 10.3909 15.4902 11.0019 15.4902 11.7949V40.1349C15.4902 40.9289 15.7092 41.5409 16.0772 41.9349L16.1712 42.0269L31.9202 26.1519V25.7779L16.1712 9.90186L16.0772 9.99485Z" fill="#00C7FF"/>
</g>
<mask id="mask1_612_1893" style="mask-type:alpha" maskUnits="userSpaceOnUse" x="31" y="20" width="14" height="12">
<path d="M31.9199 25.7769V26.1519L37.1679 31.4449L37.2879 31.3779L43.5069 27.8169C45.2829 26.7969 45.2829 25.1319 43.5069 24.1159L37.2879 20.5519L37.1699 20.4839L31.9199 25.7769Z" fill="white"/>
</mask>
<g mask="url(#mask1_612_1893)">
<path fill-rule="evenodd" clip-rule="evenodd" d="M31.9199 25.7769V26.1519L37.1679 31.4449L37.2879 31.3779L43.5069 27.8169C45.2829 26.7969 45.2829 25.1319 43.5069 24.1159L37.2879 20.5519L37.1699 20.4839L31.9199 25.7769Z" fill="#FFCE00"/>
</g>
<mask id="mask2_612_1893" style="mask-type:alpha" maskUnits="userSpaceOnUse" x="16" y="25" width="22" height="18">
<path d="M16.0781 41.9339C16.6631 42.5579 17.6311 42.6359 18.7201 42.0139L37.2881 31.3779L31.9201 25.9639L16.0781 41.9339Z" fill="white"/>
</mask>
<g mask="url(#mask2_612_1893)">
<path fill-rule="evenodd" clip-rule="evenodd" d="M16.0781 41.9339C16.6631 42.5579 17.6311 42.6359 18.7201 42.0139L37.2881 31.3779L31.9201 25.9639L16.0781 41.9339Z" fill="url(#paint0_linear_612_1893)"/>
</g>
<mask id="mask3_612_1893" style="mask-type:alpha" maskUnits="userSpaceOnUse" x="16" y="9" width="22" height="17">
<path d="M16.0791 9.99584L31.9191 25.9658L37.2881 20.5538L18.7221 9.91884C18.2091 9.62584 17.7251 9.48584 17.2961 9.48584C16.8061 9.48584 16.3891 9.66384 16.0781 9.99584" fill="white"/>
</mask>
<g mask="url(#mask3_612_1893)">
<path d="M16.0791 9.99584L31.9191 25.9658L37.2881 20.5538L18.7221 9.91884C18.2091 9.62584 17.7251 9.48584 17.2961 9.48584C16.8061 9.48584 16.3891 9.66384 16.0781 9.99584" fill="#00F076"/>
</g>
<path fill-rule="evenodd" clip-rule="evenodd" d="M18.7202 10.1041L43.5062 24.3011C44.3122 24.7611 44.7642 25.3571 44.8392 25.9641C44.8392 25.2941 44.3952 24.6231 43.5062 24.1141L18.7202 9.9171C16.9442 8.9001 15.4902 9.7451 15.4902 11.7961V11.9821C15.4902 9.9321 16.9442 9.0871 18.7202 10.1041ZM60.8972 11.3061C60.8972 10.9381 60.7582 10.6451 60.4832 10.4261C60.2072 10.2101 59.8332 10.1011 59.3592 10.1011C58.9552 10.1011 58.6142 10.2101 58.3442 10.4241C58.2143 10.5209 58.1095 10.6474 58.0385 10.793C57.9675 10.9386 57.9324 11.0991 57.9362 11.2611H56.5272C56.5272 10.8141 56.6502 10.4171 56.8972 10.0671C57.1432 9.7181 57.4822 9.4471 57.9192 9.2531C58.3736 9.05647 58.8642 8.95767 59.3592 8.9631C60.2892 8.9631 61.0142 9.1691 61.5312 9.5771C62.0452 9.9871 62.3032 10.5591 62.3032 11.2951C62.3032 11.6661 62.1932 12.0081 61.9692 12.3201C61.727 12.6449 61.4025 12.8993 61.0292 13.0571C61.4852 13.2151 61.8312 13.4541 62.0722 13.7761C62.3122 14.0951 62.4322 14.4961 62.4322 14.9731C62.4322 15.7071 62.1522 16.2921 61.5942 16.7261C61.0342 17.1591 60.2902 17.3761 59.3602 17.3761C58.8252 17.3838 58.2945 17.2782 57.8032 17.0661C57.3412 16.8591 56.9932 16.5791 56.7602 16.2211C56.524 15.8561 56.4022 15.4288 56.4102 14.9941H57.8172C57.8172 15.3481 57.9632 15.6441 58.2542 15.8871C58.5442 16.1291 58.9122 16.2501 59.3592 16.2501C59.8592 16.2501 60.2612 16.1311 60.5632 15.8961C60.8682 15.6591 61.0202 15.3511 61.0202 14.9721C61.0202 14.5101 60.8862 14.1751 60.6192 13.9671C60.3532 13.7591 59.9632 13.6551 59.4492 13.6551H58.4942V12.5291H59.3992C60.3962 12.5291 60.8962 12.1211 60.8962 11.3051L60.8972 11.3061ZM65.5432 14.2111H67.9002L66.7222 10.8111L65.5432 14.2111ZM68.2982 15.3601H65.1462L64.4862 17.2691H63.0202L66.0902 9.0701H67.3582L70.4372 17.2681H68.9602L68.2972 15.3591L68.2982 15.3601ZM76.5582 10.2201H72.8052V17.2691H71.3962V9.0701H76.5592V10.2181L76.5582 10.2201ZM79.1442 13.0801H80.8422C81.3462 13.0801 81.7282 12.9601 81.9942 12.7221C82.2572 12.4841 82.3902 12.1391 82.3902 11.6891C82.3902 11.2461 82.2552 10.8921 81.9882 10.6271C81.7192 10.3631 81.3512 10.2271 80.8812 10.2191H79.1442V13.0801ZM79.1442 14.2281V17.2681H77.7312V9.0701H80.8412C81.7512 9.0701 82.4722 9.3101 83.0062 9.7871C83.5412 10.2641 83.8082 10.8951 83.8082 11.6801C83.8082 12.4861 83.5462 13.1101 83.0242 13.5571C82.5002 14.0051 81.7662 14.2271 80.8252 14.2271H79.1432L79.1442 14.2281ZM87.9712 13.3551L89.6012 9.0711H91.1702L88.3402 15.8711L88.0832 16.3851C87.7102 17.0531 87.1072 17.3871 86.2732 17.3871L85.6932 17.3531L85.7032 16.2271C85.7922 16.2421 85.9492 16.2501 86.1782 16.2501C86.5802 16.2501 86.8622 16.0771 87.0282 15.7321L87.3182 15.0401L84.5352 9.0711H86.0772L87.9712 13.3551ZM96.3142 11.3061C96.3142 10.9381 96.1762 10.6451 95.9002 10.4261C95.6252 10.2101 95.2502 10.1011 94.7772 10.1011C94.3722 10.1011 94.0322 10.2101 93.7622 10.4241C93.6323 10.5209 93.5275 10.6474 93.4565 10.793C93.3855 10.9386 93.3504 11.0991 93.3542 11.2611H91.9442C91.9442 10.8141 92.0682 10.4171 92.3142 10.0671C92.5741 9.70706 92.928 9.42545 93.3372 9.2531C93.7916 9.0565 94.2822 8.9577 94.7772 8.9631C95.7072 8.9631 96.4322 9.1691 96.9492 9.5771C97.4632 9.9871 97.7212 10.5591 97.7212 11.2951C97.7212 11.6661 97.6102 12.0081 97.3872 12.3201C97.145 12.6449 96.8205 12.8993 96.4472 13.0571C96.9032 13.2151 97.2492 13.4541 97.4902 13.7761C97.7302 14.0951 97.8502 14.4961 97.8502 14.9731C97.8502 15.7071 97.5702 16.2921 97.0122 16.7261C96.4522 17.1591 95.7082 17.3761 94.7782 17.3761C94.2432 17.3838 93.7125 17.2782 93.2212 17.0661C92.7582 16.8591 92.4112 16.5791 92.1782 16.2211C91.942 15.8561 91.8202 15.4288 91.8282 14.9941H93.2352C93.2352 15.3481 93.3812 15.6441 93.6722 15.8871C93.9622 16.1291 94.3302 16.2501 94.7772 16.2501C95.2772 16.2501 95.6782 16.1311 95.9812 15.8961C96.2862 15.6591 96.4382 15.3511 96.4382 14.9721C96.4382 14.5101 96.3042 14.1751 96.0372 13.9671C95.7712 13.7591 95.3812 13.6551 94.8672 13.6551H93.9112V12.5291H94.8172C95.8142 12.5291 96.3142 12.1221 96.3142 11.3061ZM104.147 9.0701H105.558V17.2691H104.147V11.4291L100.576 17.2691H99.1652V9.0701H100.577V14.9161L104.147 9.0701ZM112.965 10.2201H110.43V17.2691H109.028V10.2191H106.513V9.0711H112.966L112.965 10.2191V10.2201ZM118.786 13.6091H115.444V16.1321H119.349V17.2691H114.033V9.0701H119.31V10.2181H115.444V12.4831H118.787L118.786 13.6091ZM124.761 13.5691V16.1321H126.331C126.775 16.1321 127.121 16.0201 127.371 15.7991C127.621 15.5771 127.746 15.2691 127.746 14.8771C127.746 14.0231 127.313 13.5881 126.45 13.5701L124.761 13.5691ZM124.761 12.5231H126.147C126.587 12.5231 126.93 12.4221 127.178 12.2211C127.425 12.0211 127.549 11.7361 127.549 11.3681C127.549 10.9621 127.436 10.6701 127.206 10.4881C126.978 10.3101 126.62 10.2191 126.137 10.2191H124.761V12.5231ZM123.35 17.2691V9.0701H126.138C127.056 9.0701 127.755 9.2561 128.236 9.6271C128.716 9.9991 128.957 10.5531 128.957 11.2871C128.957 11.6641 128.857 12.0011 128.655 12.3011C128.454 12.6031 128.161 12.8351 127.773 13.0001C128.212 13.1201 128.552 13.3471 128.792 13.6771C129.032 14.0101 129.153 14.4091 129.153 14.8761C129.153 15.6441 128.908 16.2361 128.418 16.6491C127.927 17.0611 127.226 17.2681 126.316 17.2681L123.35 17.2691Z" fill="white"/>
<path d="M161.499 0.554199H13.4997C6.62598 0.554199 1.05371 6.12646 1.05371 13.0002V38.9992C1.05371 45.8729 6.62598 51.4452 13.4997 51.4452H161.499C168.372 51.4452 173.945 45.8729 173.945 38.9992V13.0002C173.945 6.12646 168.372 0.554199 161.499 0.554199Z" stroke="#B3B1B1" stroke-width="1.109"/>
</g>
</g>
<defs>
<linearGradient id="paint0_linear_612_1893" x1="34.3701" y1="31.0559" x2="11.1301" y2="54.1089" gradientUnits="userSpaceOnUse">
<stop stop-color="#FF3A44"/>
<stop offset="1" stop-color="#C31162"/>
</linearGradient>
<clipPath id="clip0_612_1893">
<rect width="174" height="52" fill="white" transform="translate(0.5)"/>
</clipPath>
<clipPath id="clip1_612_1893">
<rect width="174" height="52" fill="white" transform="translate(0.5)"/>
</clipPath>
</defs>
</svg>
