<svg width="18" height="18" viewBox="0 0 18 18" fill="none" xmlns="http://www.w3.org/2000/svg">
<path d="M4.58416 6.08333H8.82999M4.58416 9H11.3775M6.86311 14H12.3965C13.8232 14 14.5366 14 15.0815 13.7275C15.5609 13.4878 15.9506 13.1054 16.1948 12.635C16.4725 12.1002 16.4725 11.4001 16.4725 10V5.5C16.4725 4.09987 16.4725 3.3998 16.1948 2.86502C15.9506 2.39462 15.5609 2.01217 15.0815 1.77248C14.5366 1.5 13.8232 1.5 12.3965 1.5H5.26349C3.83676 1.5 3.1234 1.5 2.57846 1.77248C2.09911 2.01217 1.7094 2.39462 1.46516 2.86502C1.1875 3.3998 1.1875 4.09987 1.1875 5.5V15.9463C1.1875 16.3903 1.1875 16.6123 1.28025 16.7263C1.36092 16.8255 1.48324 16.8832 1.61254 16.8831C1.76122 16.8829 1.93788 16.7442 2.29121 16.4668L4.31685 14.8765C4.73066 14.5517 4.93756 14.3892 5.16795 14.2737C5.37235 14.1712 5.58994 14.0963 5.81478 14.051C6.06822 14 6.33318 14 6.86311 14Z" stroke="#787A80" stroke-width="2" stroke-linecap="round" stroke-linejoin="round"/>
</svg>
