<svg width="32" height="32" viewBox="0 0 32 32" fill="none" xmlns="http://www.w3.org/2000/svg">
<rect x="0.5" y="0.5" width="31" height="31" rx="15.5" stroke="#677178"/>
<g clip-path="url(#clip0_612_1860)">
<g clip-path="url(#clip1_612_1860)">
<path d="M15.9967 16.0852C14.0651 16.0852 12.4885 14.5165 12.4885 12.5849C12.4885 10.6453 14.0646 9.07666 15.9967 9.07666C17.9288 9.07666 19.5049 10.6453 19.5049 12.5849C19.5049 14.5165 17.9288 16.0852 15.9967 16.0852ZM15.9967 10.854C15.7699 10.8544 15.5454 10.8995 15.336 10.9867C15.1266 11.0739 14.9365 11.2016 14.7765 11.3623C14.6164 11.5231 14.4897 11.7138 14.4034 11.9236C14.3172 12.1333 14.2731 12.358 14.2737 12.5849C14.2737 13.5354 15.0467 14.3078 15.9967 14.3078C16.9467 14.3078 17.7196 13.5349 17.7196 12.5849C17.7196 11.627 16.9467 10.854 15.9967 10.854ZM20.038 16.51C20.3782 17.2053 19.9915 17.5376 19.1108 18.1093C18.369 18.5806 17.3487 18.766 16.6767 18.8357L17.2409 19.3921L19.3041 21.4553C19.6132 21.7723 19.6132 22.2821 19.3041 22.5912L19.2116 22.6916C19.0585 22.8402 18.8534 22.9234 18.64 22.9234C18.4265 22.9234 18.2215 22.8402 18.0683 22.6916C17.3827 21.9991 16.695 21.3087 16.0051 20.6205L13.9419 22.6916C13.6249 23.0007 13.1151 23.0007 12.806 22.6916L12.7135 22.5912C12.6382 22.517 12.5784 22.4286 12.5376 22.3311C12.4967 22.2336 12.4757 22.1289 12.4757 22.0232C12.4757 21.9175 12.4967 21.8129 12.5376 21.7154C12.5784 21.6179 12.6382 21.5294 12.7135 21.4553C13.2387 20.9301 13.9884 20.1725 14.7767 19.3921L15.333 18.8357C14.6684 18.766 13.6333 18.5885 12.8836 18.1093C12.0029 17.5376 11.6166 17.2053 11.9564 16.51C12.1572 16.1158 12.7061 15.7835 13.4321 16.3552C13.4321 16.3552 14.4132 17.1355 15.9972 17.1355C17.5812 17.1355 18.5623 16.3552 18.5623 16.3552C19.2888 15.7835 19.8372 16.1158 20.038 16.51Z" fill="#677178"/>
</g>
</g>
<defs>
<clipPath id="clip0_612_1860">
<rect width="9.89062" height="18" fill="white" transform="translate(11.0508 7)"/>
</clipPath>
<clipPath id="clip1_612_1860">
<rect width="9.89062" height="18" fill="white" transform="translate(11.0508 7)"/>
</clipPath>
</defs>
</svg>
