<svg width="32" height="32" viewBox="0 0 32 32" fill="none" xmlns="http://www.w3.org/2000/svg">
<rect x="0.5" y="0.5" width="31" height="31" rx="15.5" stroke="#677178"/>
<g clip-path="url(#clip0_612_1855)">
<path fill-rule="evenodd" clip-rule="evenodd" d="M8.27119 15.1228C12.4624 13.2967 15.2574 12.0935 16.6564 11.5111C20.649 9.85084 21.4791 9.5616 22.02 9.55292C22.1386 9.55003 22.4047 9.57992 22.5773 9.71972C22.7219 9.83734 22.7624 9.99739 22.7817 10.1092C22.801 10.2211 22.8241 10.4756 22.8058 10.6752C22.5889 12.9487 21.6527 18.4655 21.1764 21.0128C20.9749 22.0898 20.5786 22.4514 20.1939 22.487C19.3589 22.5642 18.7245 21.9346 17.9166 21.4043C16.6506 20.5751 15.9352 20.0593 14.7069 19.2494C13.2877 18.3142 14.2075 17.7993 15.0174 16.9595C15.2295 16.7397 18.9077 13.3931 18.9791 13.0894C18.9887 13.0509 18.9964 12.9101 18.9116 12.8349C18.8277 12.7607 18.7043 12.7867 18.6146 12.806C18.4874 12.8349 16.4655 14.1712 12.5501 16.8149C11.9755 17.2093 11.4558 17.4011 10.9901 17.3915C10.4762 17.3799 9.48891 17.1013 8.75519 16.8622C7.85467 16.57 7.13927 16.4148 7.20098 15.9173C7.23376 15.6589 7.5905 15.3928 8.27119 15.1228Z" fill="#677178"/>
</g>
<defs>
<clipPath id="clip0_612_1855">
<rect width="16.3906" height="18" fill="white" transform="translate(6.80078 7)"/>
</clipPath>
</defs>
</svg>
