<svg width="32" height="32" viewBox="0 0 32 32" fill="none" xmlns="http://www.w3.org/2000/svg">
<rect x="0.5" y="0.5" width="31" height="31" rx="15.5" stroke="#677178"/>
<g clip-path="url(#clip0_612_1850)">
<g clip-path="url(#clip1_612_1850)">
<path d="M23.3775 11.937C23.4901 11.5794 23.3775 11.32 22.8777 11.32H21.2183C20.7991 11.32 20.6059 11.5474 20.4925 11.7909C20.4925 11.7909 19.6389 13.8702 18.4459 15.2184C18.0594 15.6087 17.8829 15.7388 17.6729 15.7388C17.5596 15.7388 17.4142 15.6087 17.4142 15.2511V11.921C17.4142 11.4988 17.2857 11.3032 16.9311 11.3032H14.3208C14.0628 11.3032 13.9023 11.4988 13.9023 11.6935C13.9023 12.0998 14.498 12.1972 14.5627 13.3338V15.8035C14.5627 16.3398 14.4661 16.4372 14.2561 16.4372C13.6923 16.4372 12.3221 14.3412 11.5004 11.953C11.3391 11.482 11.1786 11.3032 10.7594 11.3032H9.0833C8.60018 11.3032 8.51953 11.5315 8.51953 11.7749C8.51953 12.2132 9.0833 14.4226 11.1459 17.3464C12.5153 19.3451 14.4661 20.417 16.222 20.417C17.2857 20.417 17.415 20.1736 17.415 19.7673V18.2563C17.415 17.7694 17.5116 17.688 17.8502 17.688C18.0921 17.688 18.5273 17.8173 19.5103 18.776C20.6378 19.9134 20.8311 20.433 21.4595 20.433H23.1196C23.6035 20.433 23.8287 20.1896 23.7001 19.7179C23.5548 19.2477 23.007 18.5652 22.2979 17.7527C21.9107 17.2977 21.3309 16.794 21.1537 16.5506C20.9117 16.2257 20.9764 16.0956 21.1537 15.8035C21.1377 15.8035 23.1683 12.9124 23.3775 11.937Z" fill="#677178"/>
</g>
</g>
<defs>
<clipPath id="clip0_612_1850">
<rect width="24" height="9.89062" fill="white" transform="translate(4 11.0498)"/>
</clipPath>
<clipPath id="clip1_612_1850">
<rect width="24" height="9.89062" fill="white" transform="translate(4 11.0498)"/>
</clipPath>
</defs>
</svg>
