<svg width="64" height="64" viewBox="0 0 64 64" fill="none" xmlns="http://www.w3.org/2000/svg">
<path d="M30.4525 0.890143C31.2527 -0.0872211 32.7473 -0.0872194 33.5475 0.890145L37.7519 6.0254C38.2957 6.6897 39.2029 6.93277 40.0061 6.62941L46.2148 4.28432C47.3964 3.838 48.6908 4.58531 48.8951 5.83183L49.9686 12.3813C50.1074 13.2285 50.7715 13.8926 51.6187 14.0314L58.1682 15.1049C59.4147 15.3092 60.162 16.6036 59.7157 17.7853L57.3706 23.994C57.0672 24.7971 57.3103 25.7043 57.9746 26.2481L63.1099 30.4525C64.0872 31.2527 64.0872 32.7473 63.1099 33.5475L57.9746 37.7519C57.3103 38.2957 57.0672 39.2029 57.3706 40.0061L59.7157 46.2148C60.162 47.3964 59.4147 48.6908 58.1682 48.8951L51.6187 49.9686C50.7715 50.1074 50.1074 50.7715 49.9686 51.6187L48.8951 58.1682C48.6908 59.4147 47.3964 60.162 46.2147 59.7157L40.006 57.3706C39.2029 57.0672 38.2957 57.3103 37.7519 57.9746L33.5475 63.1099C32.7473 64.0872 31.2527 64.0872 30.4525 63.1099L26.2481 57.9746C25.7043 57.3103 24.7971 57.0672 23.994 57.3706L17.7852 59.7157C16.6036 60.162 15.3092 59.4147 15.1049 58.1682L14.0314 51.6187C13.8926 50.7715 13.2285 50.1074 12.3813 49.9686L5.83183 48.8951C4.58531 48.6908 3.838 47.3964 4.28432 46.2147L6.62941 40.006C6.93277 39.2029 6.6897 38.2957 6.0254 37.7519L0.890143 33.5475C-0.0872211 32.7473 -0.0872194 31.2527 0.890145 30.4525L6.0254 26.2481C6.6897 25.7043 6.93277 24.7971 6.62941 23.994L4.28432 17.7852C3.838 16.6036 4.58531 15.3092 5.83183 15.1049L12.3813 14.0314C13.2285 13.8926 13.8926 13.2285 14.0314 12.3813L15.1049 5.83183C15.3092 4.58531 16.6036 3.838 17.7853 4.28432L23.994 6.62941C24.7971 6.93277 25.7043 6.6897 26.2481 6.0254L30.4525 0.890143Z" fill="#DE2D39"/>
</svg>
